# xmcd CD database file generated by Grip 2.91
# 
# Track frame offsets:
#       150
#       28755
#       71592
#       92947
#       110079
#       131417
#       161532
#       188277
#       217492
#       241442
#       273042
#       299915
#       329265
# 
# Disc length: 4609 seconds
# 
# Revision: 5
# Processed by: cddbd v1.4b42PL1 Copyright (c) Steve Scherf et al.
# Submitted via: Gronk 1.0
# 
DISCID=ca11ff0d
DTITLE=Various Artist - Dark Techno - One/Nine-Nine
DYEAR=1997
DGENRE=blues
TTITLE0=Soma - Soma Romanz (Clovus Mix)
TTITLE1=Newt - The Abyss (Deaf Diver Mix)
TTITLE2=Black Lung - The More Confusion the More Profit (Deviant Creation)
TTITLE3=Octaine - Reflecked to Dust
TTITLE4=Nerve Filter - Ritalin
TTITLE5=Hemisphere - Spaces
TTITLE6=Covenant - Tabula Rasa (Club Version)
TTITLE7=Hyperdex-1-Sect - Mind (X Marks the Pedwalk Mix)
TTITLE8=Violet Arcana - Sensory
TTITLE9=Total Transformation - Destroy Reality
TTITLE10=Psionic - Shield Wall
TTITLE11=Unit:187 - Dead Dog (Doggy Style Mix by Tensor)
TTITLE12=Scar Tissue - Syne (Stability Mix)
EXTD=
EXTT0=
EXTT1=
EXTT2=
EXTT3=
EXTT4=
EXTT5=
EXTT6=
EXTT7=
EXTT8=
EXTT9=
EXTT10=
EXTT11=
EXTT12=
PLAYORDER=
